<svg xmlns="http://www.w3.org/2000/svg" width="16" height="15" viewBox="0 0 16 15" fill="none">
<path d="M13.6617 3.17246C12.9286 2.43152 12.0564 1.84259 11.0951 1.43946C10.1339 1.03633 9.10251 0.826918 8.06016 0.823242H8C5.88656 0.823242 3.85967 1.6628 2.36524 3.15723C0.870812 4.65167 0.03125 6.67855 0.03125 8.79199V13.167C0.03125 13.6228 0.212332 14.06 0.53466 14.3823C0.856988 14.7047 1.29416 14.8857 1.75 14.8857H3C3.45584 14.8857 3.89301 14.7047 4.21534 14.3823C4.53767 14.06 4.71875 13.6228 4.71875 13.167V10.042C4.71875 9.58615 4.53767 9.14898 4.21534 8.82665C3.89301 8.50432 3.45584 8.32324 3 8.32324H0.984375C1.07574 6.97279 1.55443 5.6773 2.36313 4.5919C3.17183 3.50651 4.27626 2.67724 5.54415 2.20339C6.81203 1.72954 8.18963 1.6312 9.51197 1.92015C10.8343 2.20911 12.0453 2.8731 13 3.83262C14.1948 5.03522 14.9114 6.63128 15.0164 8.32324H13C12.5442 8.32324 12.107 8.50432 11.7847 8.82665C11.4623 9.14898 11.2812 9.58615 11.2812 10.042V13.167C11.2812 13.6228 11.4623 14.06 11.7847 14.3823C12.107 14.7047 12.5442 14.8857 13 14.8857H14.25C14.7058 14.8857 15.143 14.7047 15.4653 14.3823C15.7877 14.06 15.9688 13.6228 15.9688 13.167V8.79199C15.9727 7.74961 15.7709 6.71669 15.375 5.7524C14.9792 4.78811 14.3969 3.91139 13.6617 3.17246ZM3 9.26074C3.2072 9.26074 3.40591 9.34305 3.55243 9.48956C3.69894 9.63608 3.78125 9.83479 3.78125 10.042V13.167C3.78125 13.3742 3.69894 13.5729 3.55243 13.7194C3.40591 13.8659 3.2072 13.9482 3 13.9482H1.75C1.5428 13.9482 1.34409 13.8659 1.19757 13.7194C1.05106 13.5729 0.96875 13.3742 0.96875 13.167V9.26074H3ZM15.0312 13.167C15.0312 13.3742 14.9489 13.5729 14.8024 13.7194C14.6559 13.8659 14.4572 13.9482 14.25 13.9482H13C12.7928 13.9482 12.5941 13.8659 12.4476 13.7194C12.3011 13.5729 12.2188 13.3742 12.2188 13.167V10.042C12.2188 9.83479 12.3011 9.63608 12.4476 9.48956C12.5941 9.34305 12.7928 9.26074 13 9.26074H15.0312V13.167Z" fill="white"/>
</svg>
